<svg width="60" height="60" viewBox="0 0 60 60" fill="none" xmlns="http://www.w3.org/2000/svg">
<path d="M2.06109 1.83216C3.83178 0.061478 6.41221 0 6.41221 0H54.0458C54.0458 0 56.5908 0.123453 58.168 1.83206C59.6238 3.40924 60 5.49618 60 5.49618V54.0458C60 54.0458 59.8122 56.5237 58.168 58.1679C56.5238 59.8122 54.0458 60 54.0458 60H6.41221C6.41221 60 3.536 60.003 1.83206 58.1679C0.249836 56.464 0 54.0458 0 54.0458V6.41221C0 6.41221 0.29041 3.60285 2.06109 1.83216Z" fill="#BEC1C8"/>
<line x1="7.32812" y1="8.49219" x2="52.2136" y2="8.49219" stroke="#A9ACB1" stroke-width="5"/>
<line x1="7.87012" y1="7.32812" x2="7.87012" y2="52.2136" stroke="#A9ACB1" stroke-width="2"/>
<line x1="51.8396" y1="7.78613" x2="51.8396" y2="52.6716" stroke="#A9ACB1" stroke-width="2"/>
<circle cx="8.01521" cy="8.01521" r="4.35115" fill="#65656D"/>
<circle cx="51.9847" cy="8.01521" r="4.35115" fill="#65656D"/>
<circle cx="8.01521" cy="52.4429" r="4.35115" fill="#65656D"/>
<circle cx="51.9847" cy="51.9849" r="4.35115" fill="#65656D"/>
<rect x="19.2366" y="2.74805" width="21.5267" height="15.5725" fill="#EEF2F3"/>
<rect x="20.6106" y="4.12207" width="18.7786" height="6.41221" fill="#B6BABB"/>
<rect x="22.4429" y="5.03809" width="2.74809" height="4.12214" fill="#56565E"/>
<rect x="26.5649" y="5.03809" width="2.74809" height="4.12214" fill="#56565E"/>
<rect x="30.687" y="5.03809" width="2.74809" height="4.12214" fill="#56565E"/>
<rect x="34.8091" y="5.03809" width="2.74809" height="4.12214" fill="#56565E"/>
<ellipse cx="22.6716" cy="14.4273" rx="1.14504" ry="1.14504" fill="#0AA9D1"/>
<ellipse cx="27.71" cy="14.4273" rx="1.14504" ry="1.14504" fill="#0AA9D1"/>
<ellipse cx="32.7481" cy="14.4273" rx="1.14504" ry="1.14504" fill="#0AA9D1"/>
<ellipse cx="37.7862" cy="14.4273" rx="1.14504" ry="1.14504" fill="#0AA9D1"/>
</svg>
