<svg width="60" height="37" viewBox="0 0 60 37" fill="none" xmlns="http://www.w3.org/2000/svg">
<path d="M0 13.5854C0 13.5854 -1.3411e-06 19.4448 7.5 23.6636C11.602 25.9709 19.2188 26.4761 19.2188 26.4761H60V36.7886H19.2188C19.2188 36.7886 10.6322 36.6111 6.32813 33.7417C0 29.523 0 24.6011 0 24.6011V13.5854Z" fill="#FAA524"/>
<path d="M1.40625 7.72612C5.39063 2.10112 10.3177 1.23678 17.1094 0.460423C25.3125 -0.477268 30 -0.00800952 37.9688 2.10112C39.375 2.47331 42.9151 4.8784 42.6563 7.72612C42.4219 10.3043 37.9688 12.4136 37.9688 12.4136C37.9688 12.4136 25.5076 9.80186 17.5781 10.773C6.09375 12.1795 1.40625 18.0386 1.40625 18.0386C1.40625 18.0386 0 14.9696 0 12.8824C0 10.7952 0.199821 9.42931 1.40625 7.72612Z" fill="#E68429"/>
<path d="M16.4062 13.3516C16.4062 13.3516 24.9701 14.0547 30.4688 14.0547C36.3281 14.0547 42.6563 7.49219 42.6563 7.49219V17.3359C42.6563 17.3359 40.11 20.2306 37.9688 21.3203C35.4731 22.5904 33.7249 22.4586 30.9375 22.7266C25.2528 23.273 16.4062 21.0859 16.4062 21.0859V13.3516Z" fill="#FAA524"/>
<rect x="24.375" y="26.4766" width="1.40625" height="4.21875" fill="#3D536A"/>
<rect x="30.9375" y="26.4766" width="1.40625" height="4.21875" fill="#3D536A"/>
<rect x="37.5" y="26.4766" width="1.40625" height="4.21875" fill="#3D536A"/>
<rect x="44.0625" y="26.4766" width="1.40625" height="4.21875" fill="#3D536A"/>
<rect x="50.625" y="26.4766" width="1.40625" height="4.21875" fill="#3D536A"/>
<rect x="57.1875" y="26.4766" width="1.40625" height="4.21875" fill="#3D536A"/>
<rect x="17.8125" y="26.4766" width="1.40625" height="4.21875" fill="#3D536A"/>
<path d="M5.625 22.4922L7.03125 23.4297V26.9453L5.625 26.4766V22.4922Z" fill="#3D536A"/>
<path d="M1.40625 18.0391L2.8125 19.9141V23.6641L1.40625 22.2578V18.0391Z" fill="#3D536A"/>
<path d="M10.7812 25.0703L12.1875 25.3047V29.2891L10.7812 28.8203V25.0703Z" fill="#3D536A"/>
<mask id="mask0_628_5222" style="mask-type:alpha" maskUnits="userSpaceOnUse" x="16" y="7" width="27" height="16">
<path d="M16.4062 13.3516C16.4062 13.3516 24.9701 14.0547 30.4688 14.0547C36.3281 14.0547 42.6563 7.49219 42.6563 7.49219V17.3359C42.6563 17.3359 40.11 20.2306 37.9688 21.3203C35.4731 22.5904 33.7249 22.4586 30.9375 22.7266C25.2528 23.273 16.4062 21.0859 16.4062 21.0859V13.3516Z" fill="#FAA524"/>
</mask>
<g mask="url(#mask0_628_5222)">
<path d="M32.3438 13.8201L33.75 13.3594V18.0389H32.3438V13.8201Z" fill="#3D536A"/>
<rect x="25.7812" y="13.5938" width="1.40625" height="4.21875" fill="#3D536A"/>
<rect x="18.75" y="13.125" width="1.40625" height="4.21875" fill="#3D536A"/>
<path d="M37.0312 11.4844L38.4375 10.5469V15.9375H37.0312V11.4844Z" fill="#3D536A"/>
<path d="M40.7812 8.75272L42.1875 7.5V13.1251H40.7812V8.75272Z" fill="#3D536A"/>
</g>
</svg>
