<svg width="60" height="44" viewBox="0 0 60 44" fill="none" xmlns="http://www.w3.org/2000/svg">
<path d="M15.364 14.0625H49.071L56.8604 29.783H15.364V14.0625Z" fill="#F2C83E"/>
<path d="M56.719 33.96L13.9478 33.96C7.29159 32.8991 2.28481 28.0098 2.47605 21.3573C2.66152 14.9057 7.49486 9.33399 13.9479 9.46008C19.7413 9.57329 25.2264 13.658 24.9238 19.4447C24.6644 24.4049 20.9161 29.2273 16.0014 28.5087C12.4979 27.9966 9.3708 25.8176 9.41576 22.2772C9.45533 19.1609 11.541 16.156 14.6559 16.2581C16.9832 16.3344 19.1741 17.5521 19.4004 19.8696C19.6255 22.1751 15 24.5 15 24.5" stroke="#A4DCF7" stroke-width="4"/>
<path d="M56.7896 31.2681L14.9215 31.2681C9.76987 30.1374 5.8479 27.0533 5.87515 21.9939C5.90029 17.3267 9.00328 13.1657 13.6646 12.9298C17.8576 12.7176 22.0765 15.3179 22.1621 19.5154C22.228 22.7455 20.0377 26.0302 17.3468 26.2426C14.656 26.4551 9.20336 22.9144 14.9216 20.5046" stroke="#FFDD4B" stroke-width="4"/>
<path d="M13.9479 1.81209C17.4178 -0.453861 21.2517 -0.45384 23.9325 1.03315C28.1456 3.36997 28.6061 5.28193 28.6061 8.82256L27 19C27 19 26.4109 12.5049 20.3211 9.24744C12.6734 5.15662 6 10 6 10L13.9479 1.81209Z" fill="#9DC7C5"/>
<path d="M39.0156 13.8374H41.5649L49.5 29.2744H46.9507L39.0156 13.8374Z" fill="#E6493A"/>
<path d="M42.8397 14.0626H45.3889L53.1784 29.2744H50.6999L42.8397 14.0626Z" fill="#E6493A"/>
<path d="M46.9468 29.2676H49.496V36H46.9468V29.2676Z" fill="#FA534A"/>
<path d="M50.7708 29.2769H53.1784V36H50.7708V29.2769Z" fill="#FA534A"/>
<path d="M18.034 20C18.034 21.1046 16.967 22.5 15.034 22.5C13.101 22.5 10.6847 22.0479 11.034 21C11.5339 19.5 12.601 18 14.534 18C16.467 18 18.034 18.8954 18.034 20Z" fill="#FFDD4B"/>
</svg>
