<svg width="60" height="34" viewBox="0 0 60 34" fill="none" xmlns="http://www.w3.org/2000/svg">
<ellipse cx="8.99004" cy="16.6431" rx="4.75518" ry="12.7525" fill="#2997C8"/>
<ellipse cx="14.3935" cy="16.6431" rx="8.42963" ry="16.6431" fill="#45BFE8"/>
<ellipse cx="17.6357" cy="16.8591" rx="5.18746" ry="13.8332" fill="#2997C8"/>
<ellipse cx="45.9507" cy="16.8593" rx="7.99734" ry="16.8593" fill="#45BFE8"/>
<ellipse cx="48.9766" cy="16.6431" rx="5.40361" ry="14.0494" fill="#2997C8"/>
<ellipse cx="50.9218" cy="16.6431" rx="5.18746" ry="12.7525" fill="#45BFE8"/>
<ellipse cx="53.5156" cy="16.8595" rx="3.8906" ry="10.8072" fill="#2997C8"/>
<path fill-rule="evenodd" clip-rule="evenodd" d="M15.4743 16.4272C15.3854 17.3854 15.5558 18.0269 16.1227 18.8046C16.5111 19.3373 17.4196 19.8853 17.4196 19.8853L38.1694 20.1014C38.1694 20.1014 37.9421 18.0041 37.9533 16.643C37.9638 15.3657 38.1694 13.4009 38.1694 13.4009L17.4196 13.4009C17.4196 13.4009 16.511 14.0961 16.1227 14.698C15.7319 15.3041 15.5409 15.7091 15.4743 16.4272ZM52.8673 13.4012C52.8673 13.4012 52.435 14.0496 52.2189 14.9142C51.8708 16.3063 51.7866 17.2918 52.2189 18.5886C52.4649 19.3269 52.8673 19.8855 52.8673 19.8855H58.487C58.487 19.8855 57.6225 19.2371 57.6225 16.6433C57.6225 14.0496 58.487 13.4012 58.487 13.4012H52.8673ZM0.344263 14.9139C-0.145042 16.0817 -0.0834168 16.9643 0.344207 18.1561C0.613159 18.9056 1.4249 19.8853 1.4249 19.8853H4.45095C4.45095 19.8853 4.23481 18.0398 4.23481 16.4272C4.23481 14.8145 4.45095 13.4009 4.45095 13.4009L1.4249 13.4009C1.04291 13.6874 0.624856 14.2442 0.344263 14.9139Z" fill="#14324E"/>
<ellipse cx="58.4869" cy="16.643" rx="1.51301" ry="3.24217" fill="#2472A2"/>
</svg>
