<svg width="49" height="60" viewBox="0 0 49 60" fill="none" xmlns="http://www.w3.org/2000/svg">
<path fill-rule="evenodd" clip-rule="evenodd" d="M17.0557 0.462961C13.6555 1.11733 8.66055 3.86284 7.36759 5.78804C5.98518 7.84668 5.94734 9.94077 7.22704 13.5883C8.69446 17.7721 8.54212 18.648 5.766 21.977C0.698829 28.0529 -0.908161 33.7636 0.47326 40.7878C1.6984 47.0189 4.95858 53.3893 9.20948 57.8581L11.247 60H24.1584H37.0699L39.2464 57.6612C42.3434 54.3327 44.1873 51.442 45.954 47.1469C49.9056 37.5372 48.8766 29.4336 42.7916 22.2493C40.0288 18.9868 39.7723 17.6239 41.1517 13.5327C42.4594 9.65273 42.2643 6.83189 40.562 5.00171C38.9147 3.23112 34.4304 1.08779 31.0714 0.465423C27.7247 -0.15399 20.2712 -0.155468 17.0557 0.462961ZM31.7368 6.60392C36.2477 7.94614 37.1726 9.89646 35.1783 13.8591C34.6043 14.999 34.0736 16.0025 33.9984 16.0886C33.9232 16.1748 32.6936 15.8976 31.2665 15.4731C27.9503 14.4864 21.0742 14.4761 17.3349 15.4515C15.7529 15.8646 14.4069 16.1413 14.3435 16.067C13.6963 15.3097 12.1414 11.5543 12.1414 10.7493C12.1414 8.50696 14.0678 7.06872 18.2843 6.16373C20.8624 5.6098 29.3278 5.88701 31.7368 6.60392Z" fill="#65656D"/>
<path d="M7.3677 5.78804C8.66066 3.86284 13.6556 1.11733 17.0558 0.462961C20.2713 -0.155468 27.7249 -0.15399 31.0715 0.465423C34.4305 1.08779 38.9148 3.23112 40.5621 5.00171C42.2644 6.83189 42.4595 9.65273 41.1518 13.5327C39.7777 17.6081 40.0269 18.9763 42.76 22.2118C42.7838 22.2331 42.7947 22.2459 42.7917 22.2493C42.7811 22.2367 42.7705 22.2242 42.76 22.2118C42.1816 21.6916 34.0068 16.067 34.0068 16.067C34.0068 16.067 35.4962 13.9535 35.9926 11.1701C36.7033 7.18577 29.2906 5.95738 24.3261 5.95738C19.0649 5.95738 11.3377 7.23364 12.4113 11.1701C13.156 13.9006 13.6964 15.3097 14.3436 16.067C14.407 16.1413 5.76611 21.977 5.76611 21.977C8.54222 18.648 8.69457 17.7721 7.22715 13.5883C5.94745 9.94077 5.98529 7.84668 7.3677 5.78804Z" fill="#4F4E54"/>
<circle cx="24.0777" cy="38.4749" r="10.6736" fill="#BEC1C8"/>
</svg>
