<svg width="60" height="56" viewBox="0 0 60 56" fill="none" xmlns="http://www.w3.org/2000/svg">
<path d="M5.77004 4.49149C14.97 -5.02562 29.5627 3.53978 29.5627 3.53978C29.5627 3.53978 42.2522 -4.70858 52.7209 4.49149C63.1895 13.6916 61.9208 24.477 51.7692 37.484C44.9361 46.2389 29.5627 55.2492 29.5627 55.2492C29.5627 55.2492 13.8039 46.4136 7.03898 37.484C-0.891915 27.0152 -3.19154 13.762 5.77004 4.49149Z" fill="#EF403B"/>
<path d="M8.62528 10.5188C15.2871 2.27078 26.7077 10.5188 26.7077 10.5188C26.7077 10.5188 39.7142 2.27077 44.7901 10.5188C49.5528 18.2578 45.1707 25.7762 39.7142 33.0426C35.8138 38.2368 26.7077 42.8768 26.7077 42.8768C26.7077 42.8768 17.5009 38.3772 13.701 33.3598C8.18436 26.0755 2.88387 17.6273 8.62528 10.5188Z" fill="#F2565A"/>
<path d="M6.72168 26.698H18.4594L25.1213 11.4707L34.0039 42.877L40.3486 26.698H52.4036" stroke="white" stroke-width="3"/>
</svg>
