<svg width="43" height="60" viewBox="0 0 43 60" fill="none" xmlns="http://www.w3.org/2000/svg">
<circle cx="20.6819" cy="7.5" r="6.5" stroke="#2F67A2" stroke-width="2"/>
<rect x="18.6365" y="11.3638" width="5" height="6.81818" fill="#0A2C4F"/>
<path d="M32.2728 18.1816L35.0001 19.9998L33.6365 22.2725L30.9092 20.4544L32.2728 18.1816Z" fill="#0A2C4F"/>
<circle cx="21.1364" cy="38.8634" r="21.1364" fill="#2F67A2"/>
<circle cx="20.6819" cy="38.8638" r="17.0455" fill="#EEF2F3"/>
<path d="M17.7273 7.72705H24.5455L23.6364 11.3634H18.6364L17.7273 7.72705Z" fill="#2F67A2"/>
<path d="M32.7273 15.9092L36.8182 18.8637L35 20.0001L32.2727 18.1819L32.7273 15.9092Z" fill="#2F67A2"/>
<rect x="20" y="22.7271" width="1.81818" height="4.09091" fill="#A1A5A6"/>
<rect x="33.4092" y="39.7729" width="1.81818" height="4.09091" transform="rotate(-90 33.4092 39.7729)" fill="#A1A5A6"/>
<rect x="4.54541" y="40" width="1.81818" height="4.09091" transform="rotate(-90 4.54541 40)" fill="#A1A5A6"/>
<rect x="20" y="50.9092" width="1.81818" height="4.09091" fill="#A1A5A6"/>
<path d="M20.9092 36.3638L24 26.5L22.2728 36.8183C22.2728 36.8183 24.3182 38.4092 23.4092 40.0001C22.5001 41.591 20.9092 41.3638 20.9092 41.3638L20.6819 45.682L18.1819 45.0001L19.7728 41.1365C19.7728 41.1365 17.9546 40.4547 18.6364 38.4092C19.3182 36.3638 20.9092 36.3638 20.9092 36.3638Z" fill="#0A2C4F"/>
<circle cx="20.909" cy="39.0907" r="1.36364" fill="#F5391B"/>
</svg>
