<svg width="33" height="61" viewBox="0 0 33 61" fill="none" xmlns="http://www.w3.org/2000/svg">
<path d="M2.75226 35.1286L2.75226 19.8993C2.75226 19.8993 2.50646 11.6224 5.32105 7.60578C8.12812 3.59989 11.0718 0.966891 15.9632 1.00031C20.5226 1.03147 23.837 2.88805 26.0549 6.87184C27.7716 9.95551 27.6601 12.4009 26.9723 15.8626C26.3102 19.1949 25.6857 21.5741 22.9356 23.569C19.567 26.0126 15.9073 26.1832 12.2935 24.1194C8.75768 22.1002 7.52091 19.0129 7.33939 14.9452C7.17151 11.1831 7.83072 8.23743 10.8256 5.95441C14.3018 3.30453 18.5697 3.26862 22.0182 5.95441C25.4597 8.63479 26.1387 12.638 24.7705 16.78C23.8754 19.4897 22.8618 21.4835 20.1833 22.4681C17.0138 23.6332 13.9777 22.5819 11.9265 19.8993C9.96359 17.3321 9.63867 14.3673 11.3761 11.6425C13.1435 8.87041 16.278 7.33547 19.2659 8.70669C21.9456 9.93642 23.2227 12.6208 22.5687 15.4956C22.0511 17.7704 20.8373 19.5412 18.532 19.8993C15.8117 20.3219 13.7006 18.165 13.0274 15.4956C12.2667 12.4791 14.2117 10.1217 16.8806 8.52321C19.709 6.82916 22.5202 6.96718 25.3209 8.70669C28.2886 10.5499 29.1741 16.78 29.1741 16.78L29.1741 35.1286" stroke="#195D9E" stroke-width="2"/>
<path d="M0 36.046C0 36.046 1.7346 35.312 2.93576 35.312C4.13693 35.312 5.87152 36.046 5.87152 36.046C5.87152 36.046 4.77061 38.9046 4.77061 40.8166C4.77061 42.7286 5.87152 45.5872 5.87152 45.5872V58.0642C5.87152 58.0642 4.55714 60.9999 2.93576 60.9999C1.31439 60.9999 0 58.0642 0 58.0642V45.5872C0 45.5872 1.10091 42.7286 1.10091 40.8166C1.10091 38.9046 0 36.046 0 36.046Z" fill="#163450"/>
<ellipse cx="2.93576" cy="36.046" rx="2.93576" ry="0.733941" fill="#35749D"/>
<path d="M26.4219 36.046C26.4219 36.046 28.1565 35.312 29.3576 35.312C30.5588 35.312 32.2934 36.046 32.2934 36.046C32.2934 36.046 31.1925 38.9046 31.1925 40.8166C31.1925 42.7286 32.2934 45.5872 32.2934 45.5872V58.0642C32.2934 58.0642 30.979 60.9999 29.3576 60.9999C27.7363 60.9999 26.4219 58.0642 26.4219 58.0642V45.5872C26.4219 45.5872 27.5228 42.7286 27.5228 40.8166C27.5228 38.9046 26.4219 36.046 26.4219 36.046Z" fill="#163450"/>
<ellipse cx="29.3576" cy="36.046" rx="2.93576" ry="0.733941" fill="#35749D"/>
</svg>
