<svg width="92" height="92" viewBox="0 0 92 92" fill="none" xmlns="http://www.w3.org/2000/svg">
<rect width="92" height="92" fill="#D9D9D9"/>
<g style="mix-blend-mode:luminosity">
<path d="M17.1244 44.2465L23.684 45.9198H25.9598C25.9598 45.9198 30.921 42.8197 34.4605 42.7739C37.932 42.729 42.8943 45.5851 42.8943 45.5851C42.8943 45.5851 47.8804 42.9519 51.328 42.9747C55.3069 43.001 59.8355 47.1191 60.4382 48.0278C60.1359 47.1762 58.7717 43.2669 58.2223 40.565C57.7494 38.2392 57.4191 34.5409 57.4191 34.5409C57.4191 34.5409 56.7643 31.3649 55.6788 29.6547C54.7079 28.125 54.2633 26.5357 52.4659 26.308C51.301 26.1603 50.7266 26.8921 49.5878 27.1781C48.4243 27.4702 46.5757 27.7805 46.5757 27.7805L44.7685 27.9144C44.7685 27.9144 43.2765 27.8653 42.8943 27.1781C42.6021 26.6527 42.7604 26.241 42.8943 25.6386C43.0281 25.0362 42.8943 24.9693 42.8274 24.8354C42.7604 24.7015 41.5556 23.162 41.6895 21.3548C41.7509 20.5248 42.262 19.2608 43.0281 18.2088C43.9302 16.9703 45.1031 16 45.1031 16C45.1031 16 49.0799 16.4635 51.4619 17.3387C53.8333 18.21 57.1514 20.4177 57.1514 20.4177L67.5264 36.6828L73.7509 46.3884C73.7509 46.3884 74.5717 48.2159 74.6884 49.4673C74.8028 50.6975 74.3537 52.6133 74.3537 52.6133C74.3537 52.6133 72.6133 57.0979 69.8687 58.3027C67.1247 59.5075 63.0414 59.8422 63.0414 59.8422C63.0414 59.8422 56.0583 63.3259 51.2611 63.3227C46.5215 63.3194 39.6145 59.9091 39.6145 59.9091C39.6145 59.9091 39.0372 63.5106 38.3427 65.7325C37.5808 68.17 35.7992 71.7564 35.7992 71.7564L29.1727 75.9733C28.9893 76.5044 20.7754 68.9669 18.9317 62.1849C17.0879 55.4028 16.6267 44.4496 17.1244 44.2465Z" fill="#363636"/>
<path d="M24.3535 45.9198H25.9599C25.9599 45.9198 30.9212 42.8197 34.4606 42.7739C37.9321 42.729 42.8944 45.5851 42.8944 45.5851C42.8944 45.5851 47.8805 42.9519 51.3282 42.9747C55.307 43.001 59.8356 47.1191 60.4383 48.0278C60.1361 47.1762 58.7719 43.2669 58.2225 40.565C57.7495 38.2392 57.4192 34.5409 57.4192 34.5409C57.4192 34.5409 56.7644 31.3649 55.679 29.6547C54.7081 28.125 54.2635 26.5357 52.4661 26.308C51.3012 26.1603 50.7268 26.8921 49.5879 27.1781C48.4244 27.4702 46.5758 27.7805 46.5758 27.7805L44.7686 27.9144C44.7686 27.9144 43.2766 27.8653 42.8944 27.1781C42.6022 26.6527 42.7605 26.241 42.8944 25.6386C43.0283 25.0362 42.8944 24.9693 42.8275 24.8354C42.7605 24.7015 41.5557 23.162 41.6896 21.3548C41.751 20.5248 42.2622 19.2608 43.0283 18.2088C43.9303 16.9703 45.1033 16 45.1033 16C45.1033 16 49.08 16.4635 51.462 17.3387C53.8334 18.21 57.1515 20.4177 57.1515 20.4177L67.5265 36.6828L73.7515 46.3884C73.7515 46.3884 74.5718 48.2159 74.6886 49.4673C74.8029 50.6975 74.3539 52.6133 74.3539 52.6133C74.3539 52.6133 72.6134 57.0979 69.8693 58.3027C67.1248 59.5075 63.042 59.8422 63.042 59.8422C63.042 59.8422 56.0584 63.3259 51.2612 63.3227C46.5216 63.3194 39.6146 59.9091 39.6146 59.9091C39.6146 59.9091 39.0373 63.5106 38.3428 65.7325C37.5809 68.17 35.9332 71.4888 35.7993 71.7564C35.6654 72.0245 30.7153 70.533 28.5704 67.3389C26.2335 63.8589 25.798 61.3382 24.9559 57.2318C24.0673 52.8981 24.3535 45.9198 24.3535 45.9198Z" fill="#FEE2CC"/>
<path d="M24.3535 45.9198H25.9599C25.9599 45.9198 30.9212 43.8237 34.4607 43.7779C37.9321 43.733 42.8944 45.5851 42.8944 45.5851C42.8944 45.5851 47.8805 42.9519 51.3282 42.9747C55.307 43.001 59.8356 47.1191 60.4383 48.0278C60.1361 47.1763 58.7719 43.2669 58.2225 40.565C57.7495 38.2393 57.4192 34.5409 57.4192 34.5409C57.4192 34.5409 56.7644 31.3649 55.679 29.6547C54.7081 28.125 54.2635 26.5357 52.4661 26.3079C51.3012 26.1603 50.7268 26.8921 49.5879 27.1781C48.4244 27.4702 46.5758 27.7805 46.5758 27.7805L44.7686 27.9144C44.7686 27.9144 43.2766 27.8654 42.8944 27.1781C42.6022 26.6527 42.7605 26.241 42.8944 25.6386C43.0283 25.0362 42.8944 24.9692 42.8275 24.8354C42.7605 24.7015 41.5557 23.162 41.6896 21.3548C41.751 20.5248 42.2622 19.2608 43.0283 18.2088C43.9303 16.9703 44.3 16.8032 44.3 16.8032C44.3 16.8032 48.2768 17.2668 50.6588 18.1419C53.0302 19.0132 56.3483 21.2209 56.3483 21.2209L66.5895 36.8836L72.814 46.5892C72.814 46.5892 73.6348 48.4167 73.7515 49.6681C73.8659 50.8983 73.4168 52.8141 73.4168 52.8141C73.4168 52.8141 72.6134 57.0979 69.8693 58.3027C67.1248 59.5075 63.042 59.8422 63.042 59.8422C63.042 59.8422 56.0584 63.326 51.2612 63.3227C46.5216 63.3195 39.6146 59.9092 39.6146 59.9092C39.6146 59.9092 39.0373 63.5107 38.3428 65.7326C37.5809 68.1696 35.9332 71.4888 35.7993 71.7565C35.6654 72.0241 30.7153 70.533 28.5704 67.339C26.2335 63.859 25.798 61.3382 24.9559 57.2317C24.0673 52.8981 24.3535 45.9198 24.3535 45.9198Z" fill="#D79E69"/>
<path d="M25.96 45.9198C25.96 45.9198 30.7623 43.7997 34.3017 43.7539C38.1839 43.7037 42.93 45.558 42.93 45.558L45.1033 48.1956C45.1033 48.1956 47.2112 45.4285 50.6589 45.4513C54.9091 45.4794 60.6102 48.5291 60.7044 48.9067C60.7555 48.6566 61.1461 46.5677 60.5652 43.711C60.0923 41.3852 58.691 34.6079 58.691 34.6079C58.691 34.6079 58.0886 31.1273 57.1515 29.2531C56.3413 27.6326 55.3345 26.0002 53.5371 25.7725C52.3721 25.6249 50.7268 26.8922 49.5879 27.1781C48.4244 27.4703 46.5759 27.7806 46.5759 27.7806C46.5759 27.7806 46.1893 27.6066 45.9734 27.4459C45.4616 27.0647 45.2138 26.7202 45.0363 26.1072C44.8617 25.504 45.1293 25.1281 45.1033 24.5008C45.0903 24.1862 45.0506 23.8414 44.9025 23.5636C44.367 22.5596 44.0261 22.2347 43.8985 21.154C43.7467 19.8696 44.1387 19.1055 44.7017 17.9411C44.9261 17.477 45.2832 16.9277 45.2832 16.9277C45.2832 16.9277 48.2769 17.2668 50.6589 18.142C53.0302 19.0132 56.3483 21.221 56.3483 21.221L66.5895 36.8836L72.9481 46.6561C72.9481 46.6561 73.617 48.461 73.8181 49.6682C74.0722 51.1929 74.2855 52.296 73.4834 53.6173C72.237 55.6711 71.0778 56.2123 68.6642 57.6334C66.2511 59.0545 62.0378 58.8383 62.0378 58.8383C62.0378 58.8383 60.6944 60.09 57.4193 60.9802C55.3599 61.5398 51.4052 61.8039 49.6548 61.7164C44.5298 61.4603 38.7445 56.6963 38.7445 56.6963C38.7445 56.6963 38.1793 61.4066 37.4058 64.3268C36.6784 67.0732 34.7647 70.7524 34.7284 70.5518C34.7284 70.5518 31.4274 69.2224 29.7083 66.7366C27.3331 63.3016 26.887 60.783 26.0269 56.6963C25.1585 52.5701 25.3576 45.9198 25.3576 45.9198H25.96Z" fill="#FBBA84"/>
<path d="M33.858 60.11C32.8281 62.6377 30.6974 65.9279 30.4443 65.5988C30.4443 65.5988 31.4695 61.8161 32.0508 59.3737C32.8425 56.0471 32.6877 54.0191 33.858 50.806C34.8217 48.1602 39.0044 46.4131 39.4136 46.723C39.4136 46.723 36.0663 49.2307 35.4644 51.6093C34.581 55.1004 35.1018 57.0571 33.858 60.11Z" fill="#D79E69"/>
<path d="M50.3909 57.6334C47.2073 57.2435 42.6265 54.9561 42.6265 54.9561C42.6265 54.9561 46.8297 59.4511 50.3909 59.8423C53.9495 60.2331 59.0254 56.7633 59.0254 56.7633C59.0254 56.7633 53.7549 58.0454 50.3909 57.6334Z" fill="#D79E69"/>
</g>
</svg>
