<svg width="586" height="121" viewBox="0 0 586 121" fill="none" xmlns="http://www.w3.org/2000/svg">
<circle cx="45" cy="65" r="45" fill="#D9D9D9"/>
<path d="M113.392 95V32.408H128.848L138.928 60.248C139.568 62.04 140.176 63.928 140.752 65.912C141.328 67.896 141.936 69.848 142.576 71.768H142.96C143.6 69.848 144.176 67.896 144.688 65.912C145.264 63.928 145.872 62.04 146.512 60.248L156.4 32.408H171.76V95H158.896V72.056C158.896 70.008 158.992 67.736 159.184 65.24C159.44 62.68 159.696 60.12 159.952 57.56C160.272 55 160.528 52.728 160.72 50.744H160.336L155.248 65.624L146.32 89.528H138.544L129.616 65.624L124.624 50.744H124.24C124.496 52.728 124.752 55 125.008 57.56C125.264 60.12 125.488 62.68 125.68 65.24C125.936 67.736 126.064 70.008 126.064 72.056V95H113.392ZM186.517 95V32.408H225.685V44.312H200.629V56.888H221.941V68.696H200.629V83.096H226.645V95H186.517ZM239.111 95V32.408H278.567V44.312H253.223V58.808H274.919V70.712H253.223V95H239.111ZM289.455 95V32.408H303.567V95H289.455ZM330.522 95V44.312H313.338V32.408H361.914V44.312H344.73V95H330.522ZM371.673 95V32.408H386.169L402.489 63.512L408.633 77.336H409.017C408.761 74.008 408.409 70.296 407.961 66.2C407.513 62.104 407.289 58.2 407.289 54.488V32.408H420.729V95H406.233L389.913 63.8L383.769 50.168H383.385C383.705 53.624 384.057 57.336 384.441 61.304C384.889 65.272 385.113 69.112 385.113 72.824V95H371.673ZM435.517 95V32.408H474.685V44.312H449.629V56.888H470.941V68.696H449.629V83.096H475.645V95H435.517ZM507.215 96.152C503.119 96.152 499.023 95.384 494.927 93.848C490.895 92.312 487.279 90.072 484.079 87.128L492.143 77.432C494.383 79.352 496.879 80.92 499.631 82.136C502.383 83.352 505.039 83.96 507.599 83.96C510.543 83.96 512.719 83.416 514.127 82.328C515.599 81.24 516.335 79.768 516.335 77.912C516.335 75.928 515.503 74.488 513.839 73.592C512.239 72.632 510.063 71.576 507.311 70.424L499.151 66.968C497.039 66.072 495.023 64.888 493.103 63.416C491.183 61.88 489.615 59.992 488.399 57.752C487.183 55.512 486.575 52.888 486.575 49.88C486.575 46.424 487.503 43.288 489.359 40.472C491.279 37.656 493.903 35.416 497.231 33.752C500.623 32.088 504.495 31.256 508.847 31.256C512.431 31.256 516.015 31.96 519.599 33.368C523.183 34.776 526.319 36.824 529.007 39.512L521.807 48.44C519.759 46.84 517.711 45.624 515.663 44.792C513.615 43.896 511.343 43.448 508.847 43.448C506.415 43.448 504.463 43.96 502.991 44.984C501.583 45.944 500.879 47.32 500.879 49.112C500.879 51.032 501.775 52.472 503.567 53.432C505.423 54.392 507.695 55.416 510.383 56.504L518.447 59.768C522.223 61.304 525.231 63.416 527.471 66.104C529.711 68.792 530.831 72.344 530.831 76.76C530.831 80.216 529.903 83.416 528.047 86.36C526.191 89.304 523.503 91.672 519.983 93.464C516.463 95.256 512.207 96.152 507.215 96.152ZM558.871 96.152C554.775 96.152 550.679 95.384 546.583 93.848C542.551 92.312 538.935 90.072 535.735 87.128L543.799 77.432C546.039 79.352 548.535 80.92 551.287 82.136C554.039 83.352 556.695 83.96 559.255 83.96C562.199 83.96 564.375 83.416 565.783 82.328C567.255 81.24 567.991 79.768 567.991 77.912C567.991 75.928 567.159 74.488 565.495 73.592C563.895 72.632 561.719 71.576 558.967 70.424L550.807 66.968C548.695 66.072 546.679 64.888 544.759 63.416C542.839 61.88 541.271 59.992 540.055 57.752C538.839 55.512 538.231 52.888 538.231 49.88C538.231 46.424 539.159 43.288 541.015 40.472C542.935 37.656 545.559 35.416 548.887 33.752C552.279 32.088 556.151 31.256 560.503 31.256C564.087 31.256 567.671 31.96 571.255 33.368C574.839 34.776 577.975 36.824 580.663 39.512L573.463 48.44C571.415 46.84 569.367 45.624 567.319 44.792C565.271 43.896 562.999 43.448 560.503 43.448C558.071 43.448 556.119 43.96 554.647 44.984C553.239 45.944 552.535 47.32 552.535 49.112C552.535 51.032 553.431 52.472 555.223 53.432C557.079 54.392 559.351 55.416 562.039 56.504L570.103 59.768C573.879 61.304 576.887 63.416 579.127 66.104C581.367 68.792 582.487 72.344 582.487 76.76C582.487 80.216 581.559 83.416 579.703 86.36C577.847 89.304 575.159 91.672 571.639 93.464C568.119 95.256 563.863 96.152 558.871 96.152Z" fill="white"/>
<path d="M16.1244 63.2465L22.684 64.9198H24.9598C24.9598 64.9198 29.921 61.8197 33.4605 61.7739C36.932 61.729 41.8943 64.5851 41.8943 64.5851C41.8943 64.5851 46.8804 61.9519 50.328 61.9747C54.3069 62.001 58.8355 66.1191 59.4382 67.0278C59.1359 66.1762 57.7717 62.2669 57.2223 59.565C56.7494 57.2392 56.4191 53.5409 56.4191 53.5409C56.4191 53.5409 55.7643 50.3649 54.6788 48.6547C53.7079 47.125 53.2633 45.5357 51.4659 45.308C50.301 45.1603 49.7266 45.8921 48.5878 46.1781C47.4243 46.4702 45.5757 46.7805 45.5757 46.7805L43.7685 46.9144C43.7685 46.9144 42.2765 46.8653 41.8943 46.1781C41.6021 45.6527 41.7604 45.241 41.8943 44.6386C42.0281 44.0362 41.8943 43.9693 41.8274 43.8354C41.7604 43.7015 40.5556 42.162 40.6895 40.3548C40.7509 39.5248 41.262 38.2608 42.0281 37.2088C42.9302 35.9703 44.1031 35 44.1031 35C44.1031 35 48.0799 35.4635 50.4619 36.3387C52.8333 37.21 56.1514 39.4177 56.1514 39.4177L66.5264 55.6828L72.7509 65.3884C72.7509 65.3884 73.5717 67.2159 73.6884 68.4673C73.8028 69.6975 73.3537 71.6133 73.3537 71.6133C73.3537 71.6133 71.6133 76.0979 68.8687 77.3027C66.1247 78.5075 62.0414 78.8422 62.0414 78.8422C62.0414 78.8422 55.0583 82.3259 50.2611 82.3227C45.5215 82.3194 38.6145 78.9091 38.6145 78.9091C38.6145 78.9091 38.0372 82.5106 37.3427 84.7325C36.5808 87.17 34.7992 90.7564 34.7992 90.7564L28.1727 94.9733C27.9893 95.5044 19.7754 87.9669 17.9317 81.1849C16.0879 74.4028 15.6267 63.4496 16.1244 63.2465Z" fill="#363636"/>
<path d="M23.3535 64.9198H24.9599C24.9599 64.9198 29.9212 61.8197 33.4606 61.7739C36.9321 61.729 41.8944 64.5851 41.8944 64.5851C41.8944 64.5851 46.8805 61.9519 50.3282 61.9747C54.307 62.001 58.8356 66.1191 59.4383 67.0278C59.1361 66.1762 57.7719 62.2669 57.2225 59.565C56.7495 57.2392 56.4192 53.5409 56.4192 53.5409C56.4192 53.5409 55.7644 50.3649 54.679 48.6547C53.7081 47.125 53.2635 45.5357 51.4661 45.308C50.3012 45.1603 49.7268 45.8921 48.5879 46.1781C47.4244 46.4702 45.5758 46.7805 45.5758 46.7805L43.7686 46.9144C43.7686 46.9144 42.2766 46.8653 41.8944 46.1781C41.6022 45.6527 41.7605 45.241 41.8944 44.6386C42.0283 44.0362 41.8944 43.9693 41.8275 43.8354C41.7605 43.7015 40.5557 42.162 40.6896 40.3548C40.751 39.5248 41.2622 38.2608 42.0283 37.2088C42.9303 35.9703 44.1033 35 44.1033 35C44.1033 35 48.08 35.4635 50.462 36.3387C52.8334 37.21 56.1515 39.4177 56.1515 39.4177L66.5265 55.6828L72.7515 65.3884C72.7515 65.3884 73.5718 67.2159 73.6886 68.4673C73.8029 69.6975 73.3539 71.6133 73.3539 71.6133C73.3539 71.6133 71.6134 76.0979 68.8693 77.3027C66.1248 78.5075 62.042 78.8422 62.042 78.8422C62.042 78.8422 55.0584 82.3259 50.2612 82.3227C45.5216 82.3194 38.6146 78.9091 38.6146 78.9091C38.6146 78.9091 38.0373 82.5106 37.3428 84.7325C36.5809 87.17 34.9332 90.4888 34.7993 90.7564C34.6654 91.0245 29.7153 89.533 27.5704 86.3389C25.2335 82.8589 24.798 80.3382 23.9559 76.2318C23.0673 71.8981 23.3535 64.9198 23.3535 64.9198Z" fill="#FEE2CC"/>
<path d="M23.3535 64.9198H24.9599C24.9599 64.9198 29.9212 62.8237 33.4607 62.7779C36.9321 62.733 41.8944 64.5851 41.8944 64.5851C41.8944 64.5851 46.8805 61.9519 50.3282 61.9747C54.307 62.001 58.8356 66.1191 59.4383 67.0278C59.1361 66.1763 57.7719 62.2669 57.2225 59.565C56.7495 57.2393 56.4192 53.5409 56.4192 53.5409C56.4192 53.5409 55.7644 50.3649 54.679 48.6547C53.7081 47.125 53.2635 45.5357 51.4661 45.3079C50.3012 45.1603 49.7268 45.8921 48.5879 46.1781C47.4244 46.4702 45.5758 46.7805 45.5758 46.7805L43.7686 46.9144C43.7686 46.9144 42.2766 46.8654 41.8944 46.1781C41.6022 45.6527 41.7605 45.241 41.8944 44.6386C42.0283 44.0362 41.8944 43.9692 41.8275 43.8354C41.7605 43.7015 40.5557 42.162 40.6896 40.3548C40.751 39.5248 41.2622 38.2608 42.0283 37.2088C42.9303 35.9703 43.3 35.8032 43.3 35.8032C43.3 35.8032 47.2768 36.2668 49.6588 37.1419C52.0302 38.0132 55.3483 40.2209 55.3483 40.2209L65.5895 55.8836L71.814 65.5892C71.814 65.5892 72.6348 67.4167 72.7515 68.6681C72.8659 69.8983 72.4168 71.8141 72.4168 71.8141C72.4168 71.8141 71.6134 76.0979 68.8693 77.3027C66.1248 78.5075 62.042 78.8422 62.042 78.8422C62.042 78.8422 55.0584 82.326 50.2612 82.3227C45.5216 82.3195 38.6146 78.9092 38.6146 78.9092C38.6146 78.9092 38.0373 82.5107 37.3428 84.7326C36.5809 87.1696 34.9332 90.4888 34.7993 90.7565C34.6654 91.0241 29.7153 89.533 27.5704 86.339C25.2335 82.859 24.798 80.3382 23.9559 76.2317C23.0673 71.8981 23.3535 64.9198 23.3535 64.9198Z" fill="#D79E69"/>
<path d="M24.96 64.9198C24.96 64.9198 29.7623 62.7997 33.3017 62.7539C37.1839 62.7037 41.93 64.558 41.93 64.558L44.1033 67.1956C44.1033 67.1956 46.2112 64.4285 49.6589 64.4513C53.9091 64.4794 59.6102 67.5291 59.7044 67.9067C59.7555 67.6566 60.1461 65.5677 59.5652 62.711C59.0923 60.3852 57.691 53.6079 57.691 53.6079C57.691 53.6079 57.0886 50.1273 56.1515 48.2531C55.3413 46.6326 54.3345 45.0002 52.5371 44.7725C51.3721 44.6249 49.7268 45.8922 48.5879 46.1781C47.4244 46.4703 45.5759 46.7806 45.5759 46.7806C45.5759 46.7806 45.1893 46.6066 44.9734 46.4459C44.4616 46.0647 44.2138 45.7202 44.0363 45.1072C43.8617 44.504 44.1293 44.1281 44.1033 43.5008C44.0903 43.1862 44.0506 42.8414 43.9025 42.5636C43.367 41.5596 43.0261 41.2347 42.8985 40.154C42.7467 38.8696 43.1387 38.1055 43.7017 36.9411C43.9261 36.477 44.2832 35.9277 44.2832 35.9277C44.2832 35.9277 47.2769 36.2668 49.6589 37.142C52.0302 38.0132 55.3483 40.221 55.3483 40.221L65.5895 55.8836L71.9481 65.6561C71.9481 65.6561 72.617 67.461 72.8181 68.6682C73.0722 70.1929 73.2855 71.296 72.4834 72.6173C71.237 74.6711 70.0778 75.2123 67.6642 76.6334C65.2511 78.0545 61.0378 77.8383 61.0378 77.8383C61.0378 77.8383 59.6944 79.09 56.4193 79.9802C54.3599 80.5398 50.4052 80.8039 48.6548 80.7164C43.5298 80.4603 37.7445 75.6963 37.7445 75.6963C37.7445 75.6963 37.1793 80.4066 36.4058 83.3268C35.6784 86.0732 33.7647 89.7524 33.7284 89.5518C33.7284 89.5518 30.4274 88.2224 28.7083 85.7366C26.3331 82.3016 25.887 79.783 25.0269 75.6963C24.1585 71.5701 24.3576 64.9198 24.3576 64.9198H24.96Z" fill="#FBBA84"/>
<path d="M32.858 79.11C31.8281 81.6377 29.6974 84.9279 29.4443 84.5988C29.4443 84.5988 30.4695 80.8161 31.0508 78.3737C31.8425 75.0471 31.6877 73.0191 32.858 69.806C33.8217 67.1602 38.0044 65.4131 38.4136 65.723C38.4136 65.723 35.0663 68.2307 34.4644 70.6093C33.581 74.1004 34.1018 76.0571 32.858 79.11Z" fill="#D79E69"/>
<path d="M49.3909 76.6334C46.2073 76.2435 41.6265 73.9561 41.6265 73.9561C41.6265 73.9561 45.8297 78.4511 49.3909 78.8423C52.9495 79.2331 58.0254 75.7633 58.0254 75.7633C58.0254 75.7633 52.7549 77.0454 49.3909 76.6334Z" fill="#D79E69"/>
</svg>
